<?xml version="1.0" encoding="utf-8" standalone="no"?>
<!DOCTYPE svg PUBLIC "-//W3C//DTD SVG 1.1//EN"
  "http://www.w3.org/Graphics/SVG/1.1/DTD/svg11.dtd">
<svg xmlns:xlink="http://www.w3.org/1999/xlink" width="285.480313pt" height="169.006687pt" viewBox="0 0 285.480313 169.006687" xmlns="http://www.w3.org/2000/svg" version="1.1">
 <metadata>
  <rdf:RDF xmlns:dc="http://purl.org/dc/elements/1.1/" xmlns:cc="http://creativecommons.org/ns#" xmlns:rdf="http://www.w3.org/1999/02/22-rdf-syntax-ns#">
   <cc:Work>
    <dc:type rdf:resource="http://purl.org/dc/dcmitype/StillImage"/>
    <dc:date>2026-07-29T10:10:34.764053</dc:date>
    <dc:format>image/svg+xml</dc:format>
    <dc:creator>
     <cc:Agent>
      <dc:title>Matplotlib v3.10.1, https://matplotlib.org/</dc:title>
     </cc:Agent>
    </dc:creator>
   </cc:Work>
  </rdf:RDF>
 </metadata>
 <defs>
  <style type="text/css">*{stroke-linejoin: round; stroke-linecap: butt}</style>
 </defs>
 <g id="figure_1">
  <g id="patch_1">
   <path d="M 0 169.006687 
L 285.480313 169.006687 
L 285.480313 0 
L 0 0 
z
" style="fill: #ffffff"/>
  </g>
  <g id="axes_1">
   <g id="patch_2">
    <path d="M 25.472813 155.232 
L 276.572813 155.232 
L 276.572813 0 
L 25.472813 0 
z
" style="fill: #ffffff"/>
   </g>
   <g id="matplotlib.axis_1">
    <g id="xtick_1">
     <g id="line2d_1">
      <path d="M 25.472812 155.232 
L 25.472812 0 
" clip-path="url(#pc2bebc9b3a)" style="fill: none; stroke: #b0b0b0; stroke-width: 0.8; stroke-linecap: square"/>
     </g>
     <g id="line2d_2">
      <defs>
       <path id="m86e58c3b8a" d="M 0 0 
L 0 3.5 
" style="stroke: #000000; stroke-width: 0.8"/>
      </defs>
      <g>
       <use xlink:href="#m86e58c3b8a" x="25.472812" y="155.232" style="stroke: #000000; stroke-width: 0.8"/>
      </g>
     </g>
     <g id="text_1">
      <!-- 2025 -->
      <g transform="translate(16.565312 167.550906) scale(0.07 -0.07)">
       <defs>
        <path id="DejaVuSans-32" d="M 1228 531 
L 3431 531 
L 3431 0 
L 469 0 
L 469 531 
Q 828 903 1448 1529 
Q 2069 2156 2228 2338 
Q 2531 2678 2651 2914 
Q 2772 3150 2772 3378 
Q 2772 3750 2511 3984 
Q 2250 4219 1831 4219 
Q 1534 4219 1204 4116 
Q 875 4013 500 3803 
L 500 4441 
Q 881 4594 1212 4672 
Q 1544 4750 1819 4750 
Q 2544 4750 2975 4387 
Q 3406 4025 3406 3419 
Q 3406 3131 3298 2873 
Q 3191 2616 2906 2266 
Q 2828 2175 2409 1742 
Q 1991 1309 1228 531 
z
" transform="scale(0.015625)"/>
        <path id="DejaVuSans-30" d="M 2034 4250 
Q 1547 4250 1301 3770 
Q 1056 3291 1056 2328 
Q 1056 1369 1301 889 
Q 1547 409 2034 409 
Q 2525 409 2770 889 
Q 3016 1369 3016 2328 
Q 3016 3291 2770 3770 
Q 2525 4250 2034 4250 
z
M 2034 4750 
Q 2819 4750 3233 4129 
Q 3647 3509 3647 2328 
Q 3647 1150 3233 529 
Q 2819 -91 2034 -91 
Q 1250 -91 836 529 
Q 422 1150 422 2328 
Q 422 3509 836 4129 
Q 1250 4750 2034 4750 
z
" transform="scale(0.015625)"/>
        <path id="DejaVuSans-35" d="M 691 4666 
L 3169 4666 
L 3169 4134 
L 1269 4134 
L 1269 2991 
Q 1406 3038 1543 3061 
Q 1681 3084 1819 3084 
Q 2600 3084 3056 2656 
Q 3513 2228 3513 1497 
Q 3513 744 3044 326 
Q 2575 -91 1722 -91 
Q 1428 -91 1123 -41 
Q 819 9 494 109 
L 494 744 
Q 775 591 1075 516 
Q 1375 441 1709 441 
Q 2250 441 2565 725 
Q 2881 1009 2881 1497 
Q 2881 1984 2565 2268 
Q 2250 2553 1709 2553 
Q 1456 2553 1204 2497 
Q 953 2441 691 2322 
L 691 4666 
z
" transform="scale(0.015625)"/>
       </defs>
       <use xlink:href="#DejaVuSans-32"/>
       <use xlink:href="#DejaVuSans-30" transform="translate(63.623047 0)"/>
       <use xlink:href="#DejaVuSans-32" transform="translate(127.246094 0)"/>
       <use xlink:href="#DejaVuSans-35" transform="translate(190.869141 0)"/>
      </g>
     </g>
    </g>
    <g id="xtick_2">
     <g id="line2d_3">
      <path d="M 50.582813 155.232 
L 50.582813 0 
" clip-path="url(#pc2bebc9b3a)" style="fill: none; stroke: #b0b0b0; stroke-width: 0.8; stroke-linecap: square"/>
     </g>
     <g id="line2d_4">
      <g>
       <use xlink:href="#m86e58c3b8a" x="50.582813" y="155.232" style="stroke: #000000; stroke-width: 0.8"/>
      </g>
     </g>
     <g id="text_2">
      <!-- 2050 -->
      <g transform="translate(41.675313 167.550906) scale(0.07 -0.07)">
       <use xlink:href="#DejaVuSans-32"/>
       <use xlink:href="#DejaVuSans-30" transform="translate(63.623047 0)"/>
       <use xlink:href="#DejaVuSans-35" transform="translate(127.246094 0)"/>
       <use xlink:href="#DejaVuSans-30" transform="translate(190.869141 0)"/>
      </g>
     </g>
    </g>
    <g id="xtick_3">
     <g id="line2d_5">
      <path d="M 75.692813 155.232 
L 75.692813 0 
" clip-path="url(#pc2bebc9b3a)" style="fill: none; stroke: #b0b0b0; stroke-width: 0.8; stroke-linecap: square"/>
     </g>
     <g id="line2d_6">
      <g>
       <use xlink:href="#m86e58c3b8a" x="75.692813" y="155.232" style="stroke: #000000; stroke-width: 0.8"/>
      </g>
     </g>
     <g id="text_3">
      <!-- 2075 -->
      <g transform="translate(66.785313 167.550906) scale(0.07 -0.07)">
       <defs>
        <path id="DejaVuSans-37" d="M 525 4666 
L 3525 4666 
L 3525 4397 
L 1831 0 
L 1172 0 
L 2766 4134 
L 525 4134 
L 525 4666 
z
" transform="scale(0.015625)"/>
       </defs>
       <use xlink:href="#DejaVuSans-32"/>
       <use xlink:href="#DejaVuSans-30" transform="translate(63.623047 0)"/>
       <use xlink:href="#DejaVuSans-37" transform="translate(127.246094 0)"/>
       <use xlink:href="#DejaVuSans-35" transform="translate(190.869141 0)"/>
      </g>
     </g>
    </g>
    <g id="xtick_4">
     <g id="line2d_7">
      <path d="M 100.802812 155.232 
L 100.802812 0 
" clip-path="url(#pc2bebc9b3a)" style="fill: none; stroke: #b0b0b0; stroke-width: 0.8; stroke-linecap: square"/>
     </g>
     <g id="line2d_8">
      <g>
       <use xlink:href="#m86e58c3b8a" x="100.802812" y="155.232" style="stroke: #000000; stroke-width: 0.8"/>
      </g>
     </g>
     <g id="text_4">
      <!-- 2100 -->
      <g transform="translate(91.895312 167.550906) scale(0.07 -0.07)">
       <defs>
        <path id="DejaVuSans-31" d="M 794 531 
L 1825 531 
L 1825 4091 
L 703 3866 
L 703 4441 
L 1819 4666 
L 2450 4666 
L 2450 531 
L 3481 531 
L 3481 0 
L 794 0 
L 794 531 
z
" transform="scale(0.015625)"/>
       </defs>
       <use xlink:href="#DejaVuSans-32"/>
       <use xlink:href="#DejaVuSans-31" transform="translate(63.623047 0)"/>
       <use xlink:href="#DejaVuSans-30" transform="translate(127.246094 0)"/>
       <use xlink:href="#DejaVuSans-30" transform="translate(190.869141 0)"/>
      </g>
     </g>
    </g>
    <g id="xtick_5">
     <g id="line2d_9">
      <path d="M 125.912812 155.232 
L 125.912812 0 
" clip-path="url(#pc2bebc9b3a)" style="fill: none; stroke: #b0b0b0; stroke-width: 0.8; stroke-linecap: square"/>
     </g>
     <g id="line2d_10">
      <g>
       <use xlink:href="#m86e58c3b8a" x="125.912812" y="155.232" style="stroke: #000000; stroke-width: 0.8"/>
      </g>
     </g>
     <g id="text_5">
      <!-- 2125 -->
      <g transform="translate(117.005312 167.550906) scale(0.07 -0.07)">
       <use xlink:href="#DejaVuSans-32"/>
       <use xlink:href="#DejaVuSans-31" transform="translate(63.623047 0)"/>
       <use xlink:href="#DejaVuSans-32" transform="translate(127.246094 0)"/>
       <use xlink:href="#DejaVuSans-35" transform="translate(190.869141 0)"/>
      </g>
     </g>
    </g>
    <g id="xtick_6">
     <g id="line2d_11">
      <path d="M 151.022813 155.232 
L 151.022813 0 
" clip-path="url(#pc2bebc9b3a)" style="fill: none; stroke: #b0b0b0; stroke-width: 0.8; stroke-linecap: square"/>
     </g>
     <g id="line2d_12">
      <g>
       <use xlink:href="#m86e58c3b8a" x="151.022813" y="155.232" style="stroke: #000000; stroke-width: 0.8"/>
      </g>
     </g>
     <g id="text_6">
      <!-- 2150 -->
      <g transform="translate(142.115313 167.550906) scale(0.07 -0.07)">
       <use xlink:href="#DejaVuSans-32"/>
       <use xlink:href="#DejaVuSans-31" transform="translate(63.623047 0)"/>
       <use xlink:href="#DejaVuSans-35" transform="translate(127.246094 0)"/>
       <use xlink:href="#DejaVuSans-30" transform="translate(190.869141 0)"/>
      </g>
     </g>
    </g>
    <g id="xtick_7">
     <g id="line2d_13">
      <path d="M 176.132813 155.232 
L 176.132813 0 
" clip-path="url(#pc2bebc9b3a)" style="fill: none; stroke: #b0b0b0; stroke-width: 0.8; stroke-linecap: square"/>
     </g>
     <g id="line2d_14">
      <g>
       <use xlink:href="#m86e58c3b8a" x="176.132813" y="155.232" style="stroke: #000000; stroke-width: 0.8"/>
      </g>
     </g>
     <g id="text_7">
      <!-- 2175 -->
      <g transform="translate(167.225313 167.550906) scale(0.07 -0.07)">
       <use xlink:href="#DejaVuSans-32"/>
       <use xlink:href="#DejaVuSans-31" transform="translate(63.623047 0)"/>
       <use xlink:href="#DejaVuSans-37" transform="translate(127.246094 0)"/>
       <use xlink:href="#DejaVuSans-35" transform="translate(190.869141 0)"/>
      </g>
     </g>
    </g>
    <g id="xtick_8">
     <g id="line2d_15">
      <path d="M 201.242812 155.232 
L 201.242812 0 
" clip-path="url(#pc2bebc9b3a)" style="fill: none; stroke: #b0b0b0; stroke-width: 0.8; stroke-linecap: square"/>
     </g>
     <g id="line2d_16">
      <g>
       <use xlink:href="#m86e58c3b8a" x="201.242812" y="155.232" style="stroke: #000000; stroke-width: 0.8"/>
      </g>
     </g>
     <g id="text_8">
      <!-- 2200 -->
      <g transform="translate(192.335312 167.550906) scale(0.07 -0.07)">
       <use xlink:href="#DejaVuSans-32"/>
       <use xlink:href="#DejaVuSans-32" transform="translate(63.623047 0)"/>
       <use xlink:href="#DejaVuSans-30" transform="translate(127.246094 0)"/>
       <use xlink:href="#DejaVuSans-30" transform="translate(190.869141 0)"/>
      </g>
     </g>
    </g>
    <g id="xtick_9">
     <g id="line2d_17">
      <path d="M 226.352813 155.232 
L 226.352813 0 
" clip-path="url(#pc2bebc9b3a)" style="fill: none; stroke: #b0b0b0; stroke-width: 0.8; stroke-linecap: square"/>
     </g>
     <g id="line2d_18">
      <g>
       <use xlink:href="#m86e58c3b8a" x="226.352813" y="155.232" style="stroke: #000000; stroke-width: 0.8"/>
      </g>
     </g>
     <g id="text_9">
      <!-- 2225 -->
      <g transform="translate(217.445313 167.550906) scale(0.07 -0.07)">
       <use xlink:href="#DejaVuSans-32"/>
       <use xlink:href="#DejaVuSans-32" transform="translate(63.623047 0)"/>
       <use xlink:href="#DejaVuSans-32" transform="translate(127.246094 0)"/>
       <use xlink:href="#DejaVuSans-35" transform="translate(190.869141 0)"/>
      </g>
     </g>
    </g>
    <g id="xtick_10">
     <g id="line2d_19">
      <path d="M 251.462813 155.232 
L 251.462813 0 
" clip-path="url(#pc2bebc9b3a)" style="fill: none; stroke: #b0b0b0; stroke-width: 0.8; stroke-linecap: square"/>
     </g>
     <g id="line2d_20">
      <g>
       <use xlink:href="#m86e58c3b8a" x="251.462813" y="155.232" style="stroke: #000000; stroke-width: 0.8"/>
      </g>
     </g>
     <g id="text_10">
      <!-- 2250 -->
      <g transform="translate(242.555313 167.550906) scale(0.07 -0.07)">
       <use xlink:href="#DejaVuSans-32"/>
       <use xlink:href="#DejaVuSans-32" transform="translate(63.623047 0)"/>
       <use xlink:href="#DejaVuSans-35" transform="translate(127.246094 0)"/>
       <use xlink:href="#DejaVuSans-30" transform="translate(190.869141 0)"/>
      </g>
     </g>
    </g>
    <g id="xtick_11">
     <g id="line2d_21">
      <path d="M 276.572812 155.232 
L 276.572812 0 
" clip-path="url(#pc2bebc9b3a)" style="fill: none; stroke: #b0b0b0; stroke-width: 0.8; stroke-linecap: square"/>
     </g>
     <g id="line2d_22">
      <g>
       <use xlink:href="#m86e58c3b8a" x="276.572812" y="155.232" style="stroke: #000000; stroke-width: 0.8"/>
      </g>
     </g>
     <g id="text_11">
      <!-- 2275 -->
      <g transform="translate(267.665312 167.550906) scale(0.07 -0.07)">
       <use xlink:href="#DejaVuSans-32"/>
       <use xlink:href="#DejaVuSans-32" transform="translate(63.623047 0)"/>
       <use xlink:href="#DejaVuSans-37" transform="translate(127.246094 0)"/>
       <use xlink:href="#DejaVuSans-35" transform="translate(190.869141 0)"/>
      </g>
     </g>
    </g>
    <g id="text_12">
     <!-- Years -->
     <g transform="translate(179.453281 152.789306) scale(0.07 -0.07)">
      <defs>
       <path id="DejaVuSans-59" d="M -13 4666 
L 666 4666 
L 1959 2747 
L 3244 4666 
L 3922 4666 
L 2272 2222 
L 2272 0 
L 1638 0 
L 1638 2222 
L -13 4666 
z
" transform="scale(0.015625)"/>
       <path id="DejaVuSans-65" d="M 3597 1894 
L 3597 1613 
L 953 1613 
Q 991 1019 1311 708 
Q 1631 397 2203 397 
Q 2534 397 2845 478 
Q 3156 559 3463 722 
L 3463 178 
Q 3153 47 2828 -22 
Q 2503 -91 2169 -91 
Q 1331 -91 842 396 
Q 353 884 353 1716 
Q 353 2575 817 3079 
Q 1281 3584 2069 3584 
Q 2775 3584 3186 3129 
Q 3597 2675 3597 1894 
z
M 3022 2063 
Q 3016 2534 2758 2815 
Q 2500 3097 2075 3097 
Q 1594 3097 1305 2825 
Q 1016 2553 972 2059 
L 3022 2063 
z
" transform="scale(0.015625)"/>
       <path id="DejaVuSans-61" d="M 2194 1759 
Q 1497 1759 1228 1600 
Q 959 1441 959 1056 
Q 959 750 1161 570 
Q 1363 391 1709 391 
Q 2188 391 2477 730 
Q 2766 1069 2766 1631 
L 2766 1759 
L 2194 1759 
z
M 3341 1997 
L 3341 0 
L 2766 0 
L 2766 531 
Q 2569 213 2275 61 
Q 1981 -91 1556 -91 
Q 1019 -91 701 211 
Q 384 513 384 1019 
Q 384 1609 779 1909 
Q 1175 2209 1959 2209 
L 2766 2209 
L 2766 2266 
Q 2766 2663 2505 2880 
Q 2244 3097 1772 3097 
Q 1472 3097 1187 3025 
Q 903 2953 641 2809 
L 641 3341 
Q 956 3463 1253 3523 
Q 1550 3584 1831 3584 
Q 2591 3584 2966 3190 
Q 3341 2797 3341 1997 
z
" transform="scale(0.015625)"/>
       <path id="DejaVuSans-72" d="M 2631 2963 
Q 2534 3019 2420 3045 
Q 2306 3072 2169 3072 
Q 1681 3072 1420 2755 
Q 1159 2438 1159 1844 
L 1159 0 
L 581 0 
L 581 3500 
L 1159 3500 
L 1159 2956 
Q 1341 3275 1631 3429 
Q 1922 3584 2338 3584 
Q 2397 3584 2469 3576 
Q 2541 3569 2628 3553 
L 2631 2963 
z
" transform="scale(0.015625)"/>
       <path id="DejaVuSans-73" d="M 2834 3397 
L 2834 2853 
Q 2591 2978 2328 3040 
Q 2066 3103 1784 3103 
Q 1356 3103 1142 2972 
Q 928 2841 928 2578 
Q 928 2378 1081 2264 
Q 1234 2150 1697 2047 
L 1894 2003 
Q 2506 1872 2764 1633 
Q 3022 1394 3022 966 
Q 3022 478 2636 193 
Q 2250 -91 1575 -91 
Q 1294 -91 989 -36 
Q 684 19 347 128 
L 347 722 
Q 666 556 975 473 
Q 1284 391 1588 391 
Q 1994 391 2212 530 
Q 2431 669 2431 922 
Q 2431 1156 2273 1281 
Q 2116 1406 1581 1522 
L 1381 1569 
Q 847 1681 609 1914 
Q 372 2147 372 2553 
Q 372 3047 722 3315 
Q 1072 3584 1716 3584 
Q 2034 3584 2315 3537 
Q 2597 3491 2834 3397 
z
" transform="scale(0.015625)"/>
      </defs>
      <use xlink:href="#DejaVuSans-59"/>
      <use xlink:href="#DejaVuSans-65" transform="translate(47.833984 0)"/>
      <use xlink:href="#DejaVuSans-61" transform="translate(109.357422 0)"/>
      <use xlink:href="#DejaVuSans-72" transform="translate(170.636719 0)"/>
      <use xlink:href="#DejaVuSans-73" transform="translate(211.75 0)"/>
     </g>
    </g>
   </g>
   <g id="matplotlib.axis_2">
    <g id="ytick_1">
     <g id="line2d_23">
      <path d="M 25.472813 142.544577 
L 276.572813 142.544577 
" clip-path="url(#pc2bebc9b3a)" style="fill: none; stroke: #b0b0b0; stroke-width: 0.8; stroke-linecap: square"/>
     </g>
     <g id="line2d_24">
      <defs>
       <path id="m5d1fdd9a01" d="M 0 0 
L -3.5 0 
" style="stroke: #000000; stroke-width: 0.8"/>
      </defs>
      <g>
       <use xlink:href="#m5d1fdd9a01" x="25.472813" y="142.544577" style="stroke: #000000; stroke-width: 0.8"/>
      </g>
     </g>
     <g id="text_13">
      <!-- 2 -->
      <g transform="translate(14.019063 145.20403) scale(0.07 -0.07)">
       <use xlink:href="#DejaVuSans-32"/>
      </g>
     </g>
    </g>
    <g id="ytick_2">
     <g id="line2d_25">
      <path d="M 25.472813 105.084094 
L 276.572813 105.084094 
" clip-path="url(#pc2bebc9b3a)" style="fill: none; stroke: #b0b0b0; stroke-width: 0.8; stroke-linecap: square"/>
     </g>
     <g id="line2d_26">
      <g>
       <use xlink:href="#m5d1fdd9a01" x="25.472813" y="105.084094" style="stroke: #000000; stroke-width: 0.8"/>
      </g>
     </g>
     <g id="text_14">
      <!-- 4 -->
      <g transform="translate(14.019063 107.743548) scale(0.07 -0.07)">
       <defs>
        <path id="DejaVuSans-34" d="M 2419 4116 
L 825 1625 
L 2419 1625 
L 2419 4116 
z
M 2253 4666 
L 3047 4666 
L 3047 1625 
L 3713 1625 
L 3713 1100 
L 3047 1100 
L 3047 0 
L 2419 0 
L 2419 1100 
L 313 1100 
L 313 1709 
L 2253 4666 
z
" transform="scale(0.015625)"/>
       </defs>
       <use xlink:href="#DejaVuSans-34"/>
      </g>
     </g>
    </g>
    <g id="ytick_3">
     <g id="line2d_27">
      <path d="M 25.472813 67.623612 
L 276.572813 67.623612 
" clip-path="url(#pc2bebc9b3a)" style="fill: none; stroke: #b0b0b0; stroke-width: 0.8; stroke-linecap: square"/>
     </g>
     <g id="line2d_28">
      <g>
       <use xlink:href="#m5d1fdd9a01" x="25.472813" y="67.623612" style="stroke: #000000; stroke-width: 0.8"/>
      </g>
     </g>
     <g id="text_15">
      <!-- 6 -->
      <g transform="translate(14.019063 70.283065) scale(0.07 -0.07)">
       <defs>
        <path id="DejaVuSans-36" d="M 2113 2584 
Q 1688 2584 1439 2293 
Q 1191 2003 1191 1497 
Q 1191 994 1439 701 
Q 1688 409 2113 409 
Q 2538 409 2786 701 
Q 3034 994 3034 1497 
Q 3034 2003 2786 2293 
Q 2538 2584 2113 2584 
z
M 3366 4563 
L 3366 3988 
Q 3128 4100 2886 4159 
Q 2644 4219 2406 4219 
Q 1781 4219 1451 3797 
Q 1122 3375 1075 2522 
Q 1259 2794 1537 2939 
Q 1816 3084 2150 3084 
Q 2853 3084 3261 2657 
Q 3669 2231 3669 1497 
Q 3669 778 3244 343 
Q 2819 -91 2113 -91 
Q 1303 -91 875 529 
Q 447 1150 447 2328 
Q 447 3434 972 4092 
Q 1497 4750 2381 4750 
Q 2619 4750 2861 4703 
Q 3103 4656 3366 4563 
z
" transform="scale(0.015625)"/>
       </defs>
       <use xlink:href="#DejaVuSans-36"/>
      </g>
     </g>
    </g>
    <g id="ytick_4">
     <g id="line2d_29">
      <path d="M 25.472813 30.16313 
L 276.572813 30.16313 
" clip-path="url(#pc2bebc9b3a)" style="fill: none; stroke: #b0b0b0; stroke-width: 0.8; stroke-linecap: square"/>
     </g>
     <g id="line2d_30">
      <g>
       <use xlink:href="#m5d1fdd9a01" x="25.472813" y="30.16313" style="stroke: #000000; stroke-width: 0.8"/>
      </g>
     </g>
     <g id="text_16">
      <!-- 8 -->
      <g transform="translate(14.019063 32.822583) scale(0.07 -0.07)">
       <defs>
        <path id="DejaVuSans-38" d="M 2034 2216 
Q 1584 2216 1326 1975 
Q 1069 1734 1069 1313 
Q 1069 891 1326 650 
Q 1584 409 2034 409 
Q 2484 409 2743 651 
Q 3003 894 3003 1313 
Q 3003 1734 2745 1975 
Q 2488 2216 2034 2216 
z
M 1403 2484 
Q 997 2584 770 2862 
Q 544 3141 544 3541 
Q 544 4100 942 4425 
Q 1341 4750 2034 4750 
Q 2731 4750 3128 4425 
Q 3525 4100 3525 3541 
Q 3525 3141 3298 2862 
Q 3072 2584 2669 2484 
Q 3125 2378 3379 2068 
Q 3634 1759 3634 1313 
Q 3634 634 3220 271 
Q 2806 -91 2034 -91 
Q 1263 -91 848 271 
Q 434 634 434 1313 
Q 434 1759 690 2068 
Q 947 2378 1403 2484 
z
M 1172 3481 
Q 1172 3119 1398 2916 
Q 1625 2713 2034 2713 
Q 2441 2713 2670 2916 
Q 2900 3119 2900 3481 
Q 2900 3844 2670 4047 
Q 2441 4250 2034 4250 
Q 1625 4250 1398 4047 
Q 1172 3844 1172 3481 
z
" transform="scale(0.015625)"/>
       </defs>
       <use xlink:href="#DejaVuSans-38"/>
      </g>
     </g>
    </g>
    <g id="text_17">
     <!-- Carbon (gigatons) -->
     <g transform="translate(0 64.024362) scale(0.07 -0.07)">
      <defs>
       <path id="DejaVuSans-43" d="M 4122 4306 
L 4122 3641 
Q 3803 3938 3442 4084 
Q 3081 4231 2675 4231 
Q 1875 4231 1450 3742 
Q 1025 3253 1025 2328 
Q 1025 1406 1450 917 
Q 1875 428 2675 428 
Q 3081 428 3442 575 
Q 3803 722 4122 1019 
L 4122 359 
Q 3791 134 3420 21 
Q 3050 -91 2638 -91 
Q 1578 -91 968 557 
Q 359 1206 359 2328 
Q 359 3453 968 4101 
Q 1578 4750 2638 4750 
Q 3056 4750 3426 4639 
Q 3797 4528 4122 4306 
z
" transform="scale(0.015625)"/>
       <path id="DejaVuSans-62" d="M 3116 1747 
Q 3116 2381 2855 2742 
Q 2594 3103 2138 3103 
Q 1681 3103 1420 2742 
Q 1159 2381 1159 1747 
Q 1159 1113 1420 752 
Q 1681 391 2138 391 
Q 2594 391 2855 752 
Q 3116 1113 3116 1747 
z
M 1159 2969 
Q 1341 3281 1617 3432 
Q 1894 3584 2278 3584 
Q 2916 3584 3314 3078 
Q 3713 2572 3713 1747 
Q 3713 922 3314 415 
Q 2916 -91 2278 -91 
Q 1894 -91 1617 61 
Q 1341 213 1159 525 
L 1159 0 
L 581 0 
L 581 4863 
L 1159 4863 
L 1159 2969 
z
" transform="scale(0.015625)"/>
       <path id="DejaVuSans-6f" d="M 1959 3097 
Q 1497 3097 1228 2736 
Q 959 2375 959 1747 
Q 959 1119 1226 758 
Q 1494 397 1959 397 
Q 2419 397 2687 759 
Q 2956 1122 2956 1747 
Q 2956 2369 2687 2733 
Q 2419 3097 1959 3097 
z
M 1959 3584 
Q 2709 3584 3137 3096 
Q 3566 2609 3566 1747 
Q 3566 888 3137 398 
Q 2709 -91 1959 -91 
Q 1206 -91 779 398 
Q 353 888 353 1747 
Q 353 2609 779 3096 
Q 1206 3584 1959 3584 
z
" transform="scale(0.015625)"/>
       <path id="DejaVuSans-6e" d="M 3513 2113 
L 3513 0 
L 2938 0 
L 2938 2094 
Q 2938 2591 2744 2837 
Q 2550 3084 2163 3084 
Q 1697 3084 1428 2787 
Q 1159 2491 1159 1978 
L 1159 0 
L 581 0 
L 581 3500 
L 1159 3500 
L 1159 2956 
Q 1366 3272 1645 3428 
Q 1925 3584 2291 3584 
Q 2894 3584 3203 3211 
Q 3513 2838 3513 2113 
z
" transform="scale(0.015625)"/>
       <path id="DejaVuSans-20" transform="scale(0.015625)"/>
       <path id="DejaVuSans-28" d="M 1984 4856 
Q 1566 4138 1362 3434 
Q 1159 2731 1159 2009 
Q 1159 1288 1364 580 
Q 1569 -128 1984 -844 
L 1484 -844 
Q 1016 -109 783 600 
Q 550 1309 550 2009 
Q 550 2706 781 3412 
Q 1013 4119 1484 4856 
L 1984 4856 
z
" transform="scale(0.015625)"/>
       <path id="DejaVuSans-67" d="M 2906 1791 
Q 2906 2416 2648 2759 
Q 2391 3103 1925 3103 
Q 1463 3103 1205 2759 
Q 947 2416 947 1791 
Q 947 1169 1205 825 
Q 1463 481 1925 481 
Q 2391 481 2648 825 
Q 2906 1169 2906 1791 
z
M 3481 434 
Q 3481 -459 3084 -895 
Q 2688 -1331 1869 -1331 
Q 1566 -1331 1297 -1286 
Q 1028 -1241 775 -1147 
L 775 -588 
Q 1028 -725 1275 -790 
Q 1522 -856 1778 -856 
Q 2344 -856 2625 -561 
Q 2906 -266 2906 331 
L 2906 616 
Q 2728 306 2450 153 
Q 2172 0 1784 0 
Q 1141 0 747 490 
Q 353 981 353 1791 
Q 353 2603 747 3093 
Q 1141 3584 1784 3584 
Q 2172 3584 2450 3431 
Q 2728 3278 2906 2969 
L 2906 3500 
L 3481 3500 
L 3481 434 
z
" transform="scale(0.015625)"/>
       <path id="DejaVuSans-69" d="M 603 3500 
L 1178 3500 
L 1178 0 
L 603 0 
L 603 3500 
z
M 603 4863 
L 1178 4863 
L 1178 4134 
L 603 4134 
L 603 4863 
z
" transform="scale(0.015625)"/>
       <path id="DejaVuSans-74" d="M 1172 4494 
L 1172 3500 
L 2356 3500 
L 2356 3053 
L 1172 3053 
L 1172 1153 
Q 1172 725 1289 603 
Q 1406 481 1766 481 
L 2356 481 
L 2356 0 
L 1766 0 
Q 1100 0 847 248 
Q 594 497 594 1153 
L 594 3053 
L 172 3053 
L 172 3500 
L 594 3500 
L 594 4494 
L 1172 4494 
z
" transform="scale(0.015625)"/>
       <path id="DejaVuSans-29" d="M 513 4856 
L 1013 4856 
Q 1481 4119 1714 3412 
Q 1947 2706 1947 2009 
Q 1947 1309 1714 600 
Q 1481 -109 1013 -844 
L 513 -844 
Q 928 -128 1133 580 
Q 1338 1288 1338 2009 
Q 1338 2731 1133 3434 
Q 928 4138 513 4856 
z
" transform="scale(0.015625)"/>
      </defs>
      <use xlink:href="#DejaVuSans-43"/>
      <use xlink:href="#DejaVuSans-61" transform="translate(69.824219 0)"/>
      <use xlink:href="#DejaVuSans-72" transform="translate(131.103516 0)"/>
      <use xlink:href="#DejaVuSans-62" transform="translate(172.216797 0)"/>
      <use xlink:href="#DejaVuSans-6f" transform="translate(235.693359 0)"/>
      <use xlink:href="#DejaVuSans-6e" transform="translate(296.875 0)"/>
      <use xlink:href="#DejaVuSans-20" transform="translate(360.253906 0)"/>
      <use xlink:href="#DejaVuSans-28" transform="translate(392.041016 0)"/>
      <use xlink:href="#DejaVuSans-67" transform="translate(431.054688 0)"/>
      <use xlink:href="#DejaVuSans-69" transform="translate(494.53125 0)"/>
      <use xlink:href="#DejaVuSans-67" transform="translate(522.314453 0)"/>
      <use xlink:href="#DejaVuSans-61" transform="translate(585.791016 0)"/>
      <use xlink:href="#DejaVuSans-74" transform="translate(647.070312 0)"/>
      <use xlink:href="#DejaVuSans-6f" transform="translate(686.279297 0)"/>
      <use xlink:href="#DejaVuSans-6e" transform="translate(747.460938 0)"/>
      <use xlink:href="#DejaVuSans-73" transform="translate(810.839844 0)"/>
      <use xlink:href="#DejaVuSans-29" transform="translate(862.939453 0)"/>
     </g>
    </g>
   </g>
   <g id="line2d_31">
    <path d="M 25.472812 7.056 
L 26.477212 7.056 
L 27.481612 8.329162 
L 28.486013 8.329162 
L 29.490413 9.401298 
L 30.494813 9.401298 
L 31.499212 10.875486 
L 32.503612 15.767111 
L 33.508012 15.767111 
L 34.512412 22.870016 
L 35.516813 24.07617 
L 36.521213 24.07617 
L 37.525613 25.349332 
L 38.530012 43.44164 
L 39.534412 44.379761 
L 40.538813 44.379761 
L 41.543212 45.585914 
L 42.547612 50.008478 
L 47.569613 55.03412 
L 49.578412 56.776341 
L 51.587212 58.585572 
L 52.591613 60.461812 
L 55.604812 63.343179 
L 56.609212 65.219419 
L 57.613613 66.090529 
L 58.618012 67.966769 
L 59.622413 68.83788 
L 61.631213 72.657366 
L 62.635612 73.528478 
L 70.670812 88.069334 
L 71.675213 90.615657 
L 72.679612 92.491898 
L 75.692813 100.800957 
L 76.697212 103.012239 
L 77.701612 104.352409 
L 79.710412 106.496682 
L 80.714813 107.769846 
L 81.719212 109.378051 
L 82.723613 114.93976 
L 83.728012 116.279931 
L 84.732412 117.888136 
L 85.736813 119.161298 
L 87.745613 123.382838 
L 88.750012 124.656 
L 91.763212 129.882666 
L 92.767613 131.490871 
L 93.772012 133.769161 
L 94.776413 134.573265 
L 95.780812 134.908306 
L 97.789612 135.779418 
L 98.794012 136.18147 
L 99.798413 136.851556 
L 102.811612 137.990701 
L 107.833612 139.598906 
L 109.842412 140.201982 
L 110.846813 140.604034 
L 114.864412 141.67617 
L 115.868813 141.810187 
L 116.873212 142.078222 
L 118.882012 142.279248 
L 120.890813 142.145229 
L 121.895212 141.810187 
L 122.899613 141.073094 
L 123.904012 139.464889 
L 124.908413 139.062837 
L 125.912812 134.30523 
L 126.917212 75.337709 
L 127.921613 75.337709 
L 128.926012 76.409846 
L 129.930413 70.647111 
L 130.934812 71.719247 
L 131.939213 71.719247 
L 132.943612 72.657366 
L 133.948012 71.719247 
L 134.952413 72.657366 
L 135.956812 74.870395 
L 139.974412 62.33805 
L 140.978812 63.343179 
L 141.983213 63.343179 
L 142.987612 61.399931 
L 143.992013 62.33805 
L 144.996412 64.281298 
L 147.005212 66.090529 
L 148.009612 61.399931 
L 150.018412 61.399931 
L 151.022813 60.461812 
L 152.027212 58.585572 
L 154.036012 58.585572 
L 155.040412 56.776341 
L 156.044813 57.647453 
L 159.058012 57.647453 
L 160.062413 56.776341 
L 162.071212 56.776341 
L 163.075613 55.838222 
L 164.080012 55.838222 
L 165.084413 55.167174 
L 166.088812 55.838222 
L 167.093213 56.194524 
L 168.097612 55.912252 
L 170.106413 55.838222 
L 171.110812 55.417399 
L 172.115213 53.961982 
L 173.119612 53.023863 
L 175.128412 53.023863 
L 176.132813 53.961982 
L 177.137213 53.023863 
L 181.154813 53.023863 
L 182.159212 52.018734 
L 193.207613 52.018734 
L 194.212012 51.013606 
L 195.216413 51.013606 
L 196.220812 52.018734 
L 197.225213 51.013606 
L 198.229613 51.013606 
L 199.234012 52.018734 
L 200.238413 51.013606 
L 201.242812 52.018734 
L 202.247213 52.018734 
L 203.251612 51.013606 
L 205.260413 51.013606 
L 206.264812 52.018734 
L 207.269213 51.013606 
L 213.295612 51.013606 
L 214.300013 50.008478 
L 215.304412 50.008478 
L 216.308813 51.013606 
L 218.317613 51.013606 
L 219.322013 50.008478 
L 224.344012 50.008478 
L 225.348413 51.013606 
L 226.352813 50.008478 
L 230.370413 50.008478 
L 231.374812 45.585914 
L 232.379213 50.008478 
L 233.383613 50.008478 
L 234.388012 45.585914 
L 235.392413 50.008478 
L 236.396812 45.585914 
L 237.401213 45.585914 
L 238.405612 50.008478 
L 240.414413 50.008478 
L 241.418812 45.585914 
L 242.423213 50.008478 
L 243.427612 45.585914 
L 257.489212 45.585914 
L 258.493613 44.379761 
L 259.498012 44.379761 
L 260.502413 25.349332 
L 267.533213 25.349332 
L 268.537613 43.44164 
L 271.550812 43.44164 
L 272.555213 25.349332 
L 273.559612 43.44164 
L 274.564013 43.44164 
L 275.568413 44.379761 
L 275.568413 44.379761 
" clip-path="url(#pc2bebc9b3a)" style="fill: none; stroke: #000000; stroke-width: 1.3; stroke-linecap: square"/>
   </g>
   <g id="line2d_32">
    <path d="M 25.472812 8.329162 
L 26.477212 9.401298 
L 27.481612 9.401298 
L 28.486013 10.875486 
L 29.490413 10.875486 
L 30.494813 15.767111 
L 31.499212 22.870016 
L 32.503612 22.870016 
L 34.512412 25.349332 
L 35.516813 25.349332 
L 36.521213 43.44164 
L 37.525613 44.379761 
L 38.530012 44.379761 
L 39.534412 45.585914 
L 40.538813 50.008478 
L 42.547612 52.018734 
L 43.552013 52.209858 
L 45.560813 53.961982 
L 46.565212 55.03412 
L 48.574012 56.776341 
L 51.587212 59.523691 
L 52.591613 60.461812 
L 53.596012 62.33805 
L 56.609212 65.219419 
L 57.613613 67.02865 
L 59.622413 68.83788 
L 61.631213 72.657366 
L 62.635612 73.528478 
L 70.670812 88.069334 
L 71.675213 90.615657 
L 72.679612 92.491898 
L 75.692813 100.800957 
L 76.697212 103.012239 
L 77.701612 104.352409 
L 79.710412 106.496682 
L 80.714813 107.769846 
L 81.719212 109.378051 
L 82.723613 114.93976 
L 83.728012 116.279931 
L 84.732412 117.888136 
L 85.736813 119.161298 
L 87.745613 123.382838 
L 88.750012 124.656 
L 91.763212 129.882666 
L 92.767613 131.490871 
L 93.772012 133.769161 
L 94.776413 134.573265 
L 95.780812 134.908306 
L 97.789612 135.779418 
L 98.794012 136.18147 
L 99.798413 136.851556 
L 102.811612 137.990701 
L 107.833612 139.598906 
L 109.842412 140.201982 
L 110.846813 140.604034 
L 114.864412 141.67617 
L 115.868813 141.810187 
L 116.873212 142.078222 
L 118.882012 142.279248 
L 120.890813 142.145229 
L 121.895212 141.810187 
L 122.899613 141.073094 
L 123.904012 143.753436 
L 124.908413 144.088479 
L 125.912812 138.593777 
L 126.917212 86.32711 
L 127.921613 84.956015 
L 128.926012 85.456 
L 129.930413 73.528478 
L 130.934812 72.657366 
L 131.939213 73.528478 
L 133.948012 71.719247 
L 134.952413 73.528478 
L 135.956812 76.409846 
L 136.961213 72.894158 
L 137.965612 68.55089 
L 138.970013 66.090529 
L 139.974412 60.461812 
L 140.978812 62.33805 
L 141.983213 62.33805 
L 142.987612 59.523691 
L 143.992013 60.461812 
L 146.000813 64.281298 
L 147.005212 66.090529 
L 148.009612 62.677345 
L 149.014013 61.399931 
L 150.018412 61.399931 
L 151.022813 60.461812 
L 152.027212 58.585572 
L 154.036012 58.585572 
L 155.040412 56.776341 
L 156.044813 57.647453 
L 159.058012 57.647453 
L 160.062413 56.776341 
L 162.071212 56.776341 
L 163.075613 55.838222 
L 164.080012 55.838222 
L 165.084413 55.59226 
L 166.088812 55.838222 
L 167.093213 56.514695 
L 168.097612 55.838222 
L 170.106413 55.838222 
L 171.110812 55.03412 
L 172.115213 53.961982 
L 173.119612 52.018734 
L 174.124013 53.023863 
L 175.128412 53.023863 
L 176.132813 53.961982 
L 177.137213 53.023863 
L 181.154813 53.023863 
L 182.159212 52.018734 
L 193.207613 52.018734 
L 194.212012 51.013606 
L 195.216413 51.013606 
L 196.220812 52.018734 
L 197.225213 51.013606 
L 198.229613 51.013606 
L 199.234012 52.018734 
L 200.238413 51.013606 
L 201.242812 52.018734 
L 202.247213 52.018734 
L 203.251612 51.013606 
L 205.260413 51.013606 
L 206.264812 52.018734 
L 207.269213 51.013606 
L 213.295612 51.013606 
L 214.300013 50.008478 
L 215.304412 50.008478 
L 216.308813 51.013606 
L 218.317613 51.013606 
L 219.322013 50.008478 
L 224.344012 50.008478 
L 225.348413 51.013606 
L 226.352813 50.008478 
L 230.370413 50.008478 
L 231.374812 45.585914 
L 232.379213 50.008478 
L 233.383613 50.008478 
L 234.388012 45.585914 
L 235.392413 50.008478 
L 236.396812 45.585914 
L 237.401213 45.585914 
L 238.405612 50.008478 
L 240.414413 50.008478 
L 241.418812 45.585914 
L 242.423213 50.008478 
L 243.427612 45.585914 
L 257.489212 45.585914 
L 258.493613 44.379761 
L 259.498012 44.379761 
L 260.502413 25.349332 
L 267.533213 25.349332 
L 268.537613 43.44164 
L 271.550812 43.44164 
L 272.555213 25.349332 
L 273.559612 43.44164 
L 274.564013 44.283313 
L 275.568413 44.379761 
L 275.568413 44.379761 
" clip-path="url(#pc2bebc9b3a)" style="fill: none; stroke-dasharray: 4.81,2.08; stroke-dashoffset: 0; stroke: #000000; stroke-width: 1.3"/>
   </g>
   <g id="line2d_33">
    <path d="M 25.472812 22.870016 
L 26.477212 24.07617 
L 27.481612 24.07617 
L 28.486013 25.349332 
L 29.490413 43.44164 
L 30.494813 43.44164 
L 31.499212 44.379761 
L 32.503612 45.585914 
L 33.508012 50.008478 
L 36.521213 53.023863 
L 37.525613 53.023863 
L 44.556412 59.523691 
L 45.560813 61.399931 
L 49.578412 65.219419 
L 50.582813 67.02865 
L 52.591613 68.83788 
L 53.596012 70.647111 
L 54.600413 71.719247 
L 55.604812 73.528478 
L 56.609212 74.39959 
L 57.613613 76.409846 
L 58.618012 78.152068 
L 59.622413 78.95617 
L 61.631213 82.641641 
L 63.640012 86.32711 
L 64.644413 87.198222 
L 65.648812 89.811555 
L 68.662013 95.306257 
L 70.670812 100.800957 
L 72.679612 103.950359 
L 73.684013 105.022494 
L 74.688412 105.759589 
L 76.697212 108.171896 
L 78.706013 110.450187 
L 79.710412 115.877879 
L 83.728012 122.243693 
L 88.750012 129.413606 
L 89.754413 130.887794 
L 90.758812 132.160956 
L 91.763212 134.037196 
L 92.767613 134.573265 
L 94.776413 135.176342 
L 97.789612 136.18147 
L 98.794012 136.717537 
L 103.816013 138.392751 
L 104.820412 138.593777 
L 105.824812 140.201982 
L 107.833612 140.939077 
L 109.842412 141.609162 
L 110.846813 141.810187 
L 111.851212 142.212239 
L 112.855612 141.408136 
L 114.864412 142.279248 
L 116.873212 143.284376 
L 117.877613 143.619417 
L 118.882012 143.418393 
L 119.886412 143.418393 
L 120.890813 143.284376 
L 121.895212 142.949334 
L 122.899613 143.150358 
L 123.904012 146.098734 
L 124.908413 146.29976 
L 125.912812 139.598906 
L 126.917212 88.873436 
L 127.921613 87.198222 
L 128.926012 87.416341 
L 129.930413 74.39959 
L 130.934812 73.528478 
L 131.939213 73.528478 
L 133.948012 71.719247 
L 135.956812 75.456417 
L 136.961213 72.657366 
L 137.965612 67.966769 
L 138.970013 65.207563 
L 139.974412 59.523691 
L 140.978812 61.206806 
L 141.983213 60.461812 
L 142.987612 59.523691 
L 143.992013 59.523691 
L 147.005212 65.219419 
L 148.009612 62.83219 
L 149.014013 61.399931 
L 150.018412 61.399931 
L 151.022813 60.461812 
L 152.027212 58.585572 
L 154.036012 58.585572 
L 155.040412 56.776341 
L 156.044813 57.647453 
L 159.058012 57.647453 
L 160.062413 56.776341 
L 162.071212 56.776341 
L 164.080012 55.03412 
L 165.084413 55.838222 
L 166.088812 55.838222 
L 167.093213 56.453984 
L 168.097612 55.838222 
L 170.106413 55.838222 
L 171.110812 55.03412 
L 172.115213 53.961982 
L 173.119612 52.018734 
L 174.124013 53.023863 
L 175.128412 53.023863 
L 176.132813 53.961982 
L 177.137213 53.023863 
L 181.154813 53.023863 
L 182.159212 52.018734 
L 193.207613 52.018734 
L 194.212012 51.013606 
L 195.216413 51.013606 
L 196.220812 52.018734 
L 197.225213 51.013606 
L 198.229613 51.013606 
L 199.234012 52.018734 
L 200.238413 51.013606 
L 201.242812 52.018734 
L 202.247213 52.018734 
L 203.251612 51.013606 
L 205.260413 51.013606 
L 206.264812 52.018734 
L 207.269213 51.013606 
L 213.295612 51.013606 
L 214.300013 50.008478 
L 215.304412 50.008478 
L 216.308813 51.013606 
L 218.317613 51.013606 
L 219.322013 50.008478 
L 224.344012 50.008478 
L 225.348413 51.013606 
L 226.352813 50.008478 
L 230.370413 50.008478 
L 231.374812 45.585914 
L 232.379213 50.008478 
L 233.383613 50.008478 
L 234.388012 45.585914 
L 235.392413 50.008478 
L 236.396812 45.585914 
L 237.401213 45.585914 
L 238.405612 50.008478 
L 240.414413 50.008478 
L 241.418812 45.585914 
L 242.423213 50.008478 
L 243.427612 45.585914 
L 257.489212 45.585914 
L 258.493613 44.379761 
L 259.498012 44.379761 
L 260.502413 25.349332 
L 267.533213 25.349332 
L 268.537613 43.44164 
L 271.550812 43.44164 
L 272.555213 25.349332 
L 273.559612 43.44164 
L 274.564013 43.44164 
L 275.568413 44.379761 
L 275.568413 44.379761 
" clip-path="url(#pc2bebc9b3a)" style="fill: none; stroke-dasharray: 1.3,2.145; stroke-dashoffset: 0; stroke: #000000; stroke-width: 1.3"/>
   </g>
   <g id="line2d_34">
    <path d="M 25.472812 44.379761 
L 26.477212 45.585914 
L 27.481612 45.585914 
L 28.486013 50.008478 
L 33.508012 55.03412 
L 35.516813 56.776341 
L 38.530012 59.523691 
L 40.538813 61.399931 
L 41.543212 63.343179 
L 44.556412 66.090529 
L 45.560813 67.966769 
L 47.569613 69.776 
L 48.574012 71.719247 
L 49.578412 72.657366 
L 50.582813 74.39959 
L 51.587212 76.409846 
L 52.591613 77.213949 
L 54.600413 80.899418 
L 55.604812 81.77053 
L 58.618012 87.198222 
L 60.626812 90.615657 
L 62.635612 94.435145 
L 63.640012 97.115488 
L 65.648812 100.800957 
L 66.653213 103.012239 
L 68.662013 105.022494 
L 69.666412 106.496682 
L 71.675213 108.975999 
L 72.679612 110.115144 
L 73.684013 115.207794 
L 74.688412 116.748991 
L 76.697212 119.161298 
L 77.701612 121.037538 
L 78.706013 122.645743 
L 79.710412 123.650871 
L 80.714813 125.728136 
L 81.719212 127.135316 
L 82.723613 128.81053 
L 84.732412 131.490871 
L 85.736813 133.166085 
L 86.741212 134.439247 
L 87.745613 134.707282 
L 88.750012 135.109332 
L 89.754413 135.377368 
L 94.776413 137.320615 
L 95.780812 137.655658 
L 96.785213 137.789675 
L 97.789612 138.191727 
L 99.798413 138.593777 
L 100.802812 138.995829 
L 103.816013 139.866939 
L 104.820412 140.201982 
L 105.824812 141.810187 
L 108.838013 143.016341 
L 109.842412 143.284376 
L 111.851212 144.02147 
L 112.855612 143.150358 
L 114.864412 144.155486 
L 116.873212 145.160615 
L 117.877613 145.361641 
L 119.886412 145.294631 
L 120.890813 145.160615 
L 121.895212 144.825572 
L 122.899613 145.026598 
L 123.904012 147.907965 
L 124.908413 148.176 
L 125.912812 140.268991 
L 126.917212 90.615657 
L 127.921613 88.424077 
L 128.926012 89.617929 
L 129.930413 75.269319 
L 130.934812 73.528478 
L 131.939213 73.528478 
L 133.948012 71.719247 
L 134.952413 72.657366 
L 135.956812 75.337709 
L 137.965612 67.966769 
L 139.974412 59.523691 
L 140.978812 60.461812 
L 142.987612 58.585572 
L 144.996412 60.590013 
L 147.005212 64.281298 
L 148.009612 62.686287 
L 149.014013 61.399931 
L 150.018412 61.399931 
L 151.022813 60.461812 
L 152.027212 58.585572 
L 154.036012 58.585572 
L 155.040412 56.776341 
L 156.044813 57.647453 
L 159.058012 57.647453 
L 160.062413 56.776341 
L 162.071212 56.776341 
L 164.080012 55.03412 
L 165.084413 55.604555 
L 166.088812 55.838222 
L 170.106413 55.838222 
L 171.110812 55.03412 
L 172.115213 53.961982 
L 173.119612 52.018734 
L 174.124013 53.023863 
L 175.128412 53.023863 
L 176.132813 53.961982 
L 177.137213 53.023863 
L 181.154813 53.023863 
L 182.159212 52.018734 
L 193.207613 52.018734 
L 194.212012 51.013606 
L 195.216413 51.013606 
L 196.220812 52.018734 
L 197.225213 51.013606 
L 198.229613 51.013606 
L 199.234012 52.018734 
L 200.238413 51.013606 
L 201.242812 52.018734 
L 202.247213 52.018734 
L 203.251612 51.013606 
L 205.260413 51.013606 
L 206.264812 52.018734 
L 207.269213 51.013606 
L 213.295612 51.013606 
L 214.300013 50.008478 
L 215.304412 50.008478 
L 216.308813 51.013606 
L 218.317613 51.013606 
L 219.322013 50.008478 
L 224.344012 50.008478 
L 225.348413 51.013606 
L 226.352813 50.008478 
L 230.370413 50.008478 
L 231.374812 45.585914 
L 232.379213 50.008478 
L 233.383613 50.008478 
L 234.388012 45.585914 
L 235.392413 50.008478 
L 236.396812 45.585914 
L 237.401213 45.585914 
L 238.405612 50.008478 
L 240.414413 50.008478 
L 241.418812 45.585914 
L 242.423213 50.008478 
L 243.427612 45.585914 
L 257.489212 45.585914 
L 258.493613 44.379761 
L 259.498012 44.379761 
L 260.502413 25.349332 
L 267.533213 25.349332 
L 268.537613 43.44164 
L 271.550812 43.44164 
L 272.555213 25.349332 
L 273.559612 43.44164 
L 274.564013 43.44164 
L 275.568413 44.379761 
L 275.568413 44.379761 
" clip-path="url(#pc2bebc9b3a)" style="fill: none; stroke-dasharray: 8.32,2.08,1.3,2.08; stroke-dashoffset: 0; stroke: #000000; stroke-width: 1.3"/>
   </g>
   <g id="patch_3">
    <path d="M 25.472813 155.232 
L 25.472813 0 
" style="fill: none; stroke: #000000; stroke-width: 0.8; stroke-linejoin: miter; stroke-linecap: square"/>
   </g>
   <g id="patch_4">
    <path d="M 276.572813 155.232 
L 276.572813 0 
" style="fill: none; stroke: #000000; stroke-width: 0.8; stroke-linejoin: miter; stroke-linecap: square"/>
   </g>
   <g id="patch_5">
    <path d="M 25.472812 155.232 
L 276.572812 155.232 
" style="fill: none; stroke: #000000; stroke-width: 0.8; stroke-linejoin: miter; stroke-linecap: square"/>
   </g>
   <g id="patch_6">
    <path d="M 25.472812 0 
L 276.572812 0 
" style="fill: none; stroke: #000000; stroke-width: 0.8; stroke-linejoin: miter; stroke-linecap: square"/>
   </g>
   <g id="legend_1">
    <g id="line2d_35">
     <path d="M 217.755313 114.202156 
L 224.755313 114.202156 
L 231.755313 114.202156 
" style="fill: none; stroke: #000000; stroke-width: 1.3; stroke-linecap: square"/>
    </g>
    <g id="text_18">
     <!-- tau = 1.6 -->
     <g transform="translate(237.355313 116.652156) scale(0.07 -0.07)">
      <defs>
       <path id="DejaVuSans-75" d="M 544 1381 
L 544 3500 
L 1119 3500 
L 1119 1403 
Q 1119 906 1312 657 
Q 1506 409 1894 409 
Q 2359 409 2629 706 
Q 2900 1003 2900 1516 
L 2900 3500 
L 3475 3500 
L 3475 0 
L 2900 0 
L 2900 538 
Q 2691 219 2414 64 
Q 2138 -91 1772 -91 
Q 1169 -91 856 284 
Q 544 659 544 1381 
z
M 1991 3584 
L 1991 3584 
z
" transform="scale(0.015625)"/>
       <path id="DejaVuSans-3d" d="M 678 2906 
L 4684 2906 
L 4684 2381 
L 678 2381 
L 678 2906 
z
M 678 1631 
L 4684 1631 
L 4684 1100 
L 678 1100 
L 678 1631 
z
" transform="scale(0.015625)"/>
       <path id="DejaVuSans-2e" d="M 684 794 
L 1344 794 
L 1344 0 
L 684 0 
L 684 794 
z
" transform="scale(0.015625)"/>
      </defs>
      <use xlink:href="#DejaVuSans-74"/>
      <use xlink:href="#DejaVuSans-61" transform="translate(39.208984 0)"/>
      <use xlink:href="#DejaVuSans-75" transform="translate(100.488281 0)"/>
      <use xlink:href="#DejaVuSans-20" transform="translate(163.867188 0)"/>
      <use xlink:href="#DejaVuSans-3d" transform="translate(195.654297 0)"/>
      <use xlink:href="#DejaVuSans-20" transform="translate(279.443359 0)"/>
      <use xlink:href="#DejaVuSans-31" transform="translate(311.230469 0)"/>
      <use xlink:href="#DejaVuSans-2e" transform="translate(374.853516 0)"/>
      <use xlink:href="#DejaVuSans-36" transform="translate(406.640625 0)"/>
     </g>
    </g>
    <g id="line2d_36">
     <path d="M 217.755313 124.476844 
L 224.755313 124.476844 
L 231.755313 124.476844 
" style="fill: none; stroke-dasharray: 4.81,2.08; stroke-dashoffset: 0; stroke: #000000; stroke-width: 1.3"/>
    </g>
    <g id="text_19">
     <!-- tau = 1.8 -->
     <g transform="translate(237.355313 126.926844) scale(0.07 -0.07)">
      <use xlink:href="#DejaVuSans-74"/>
      <use xlink:href="#DejaVuSans-61" transform="translate(39.208984 0)"/>
      <use xlink:href="#DejaVuSans-75" transform="translate(100.488281 0)"/>
      <use xlink:href="#DejaVuSans-20" transform="translate(163.867188 0)"/>
      <use xlink:href="#DejaVuSans-3d" transform="translate(195.654297 0)"/>
      <use xlink:href="#DejaVuSans-20" transform="translate(279.443359 0)"/>
      <use xlink:href="#DejaVuSans-31" transform="translate(311.230469 0)"/>
      <use xlink:href="#DejaVuSans-2e" transform="translate(374.853516 0)"/>
      <use xlink:href="#DejaVuSans-38" transform="translate(406.640625 0)"/>
     </g>
    </g>
    <g id="line2d_37">
     <path d="M 217.755313 134.751531 
L 224.755313 134.751531 
L 231.755313 134.751531 
" style="fill: none; stroke-dasharray: 1.3,2.145; stroke-dashoffset: 0; stroke: #000000; stroke-width: 1.3"/>
    </g>
    <g id="text_20">
     <!-- tau = 2.0 -->
     <g transform="translate(237.355313 137.201531) scale(0.07 -0.07)">
      <use xlink:href="#DejaVuSans-74"/>
      <use xlink:href="#DejaVuSans-61" transform="translate(39.208984 0)"/>
      <use xlink:href="#DejaVuSans-75" transform="translate(100.488281 0)"/>
      <use xlink:href="#DejaVuSans-20" transform="translate(163.867188 0)"/>
      <use xlink:href="#DejaVuSans-3d" transform="translate(195.654297 0)"/>
      <use xlink:href="#DejaVuSans-20" transform="translate(279.443359 0)"/>
      <use xlink:href="#DejaVuSans-32" transform="translate(311.230469 0)"/>
      <use xlink:href="#DejaVuSans-2e" transform="translate(374.853516 0)"/>
      <use xlink:href="#DejaVuSans-30" transform="translate(406.640625 0)"/>
     </g>
    </g>
    <g id="line2d_38">
     <path d="M 217.755313 145.026219 
L 224.755313 145.026219 
L 231.755313 145.026219 
" style="fill: none; stroke-dasharray: 8.32,2.08,1.3,2.08; stroke-dashoffset: 0; stroke: #000000; stroke-width: 1.3"/>
    </g>
    <g id="text_21">
     <!-- tau = 2.2 -->
     <g transform="translate(237.355313 147.476219) scale(0.07 -0.07)">
      <use xlink:href="#DejaVuSans-74"/>
      <use xlink:href="#DejaVuSans-61" transform="translate(39.208984 0)"/>
      <use xlink:href="#DejaVuSans-75" transform="translate(100.488281 0)"/>
      <use xlink:href="#DejaVuSans-20" transform="translate(163.867188 0)"/>
      <use xlink:href="#DejaVuSans-3d" transform="translate(195.654297 0)"/>
      <use xlink:href="#DejaVuSans-20" transform="translate(279.443359 0)"/>
      <use xlink:href="#DejaVuSans-32" transform="translate(311.230469 0)"/>
      <use xlink:href="#DejaVuSans-2e" transform="translate(374.853516 0)"/>
      <use xlink:href="#DejaVuSans-32" transform="translate(406.640625 0)"/>
     </g>
    </g>
   </g>
  </g>
 </g>
 <defs>
  <clipPath id="pc2bebc9b3a">
   <rect x="25.472813" y="0" width="251.1" height="155.232"/>
  </clipPath>
 </defs>
</svg>
